<mxfile host="app.diagrams.net" modified="2021-08-29T15:55:41.024Z" agent="5.0 (Windows NT 10.0; Win64; x64) AppleWebKit/537.36 (KHTML, like Gecko) Chrome/92.0.4515.131 Safari/537.36 OPR/78.0.4093.186" etag="SH7u9uXRW0WvaE9WWff3" version="15.0.3" type="github" pages="4">
  <diagram id="S4ZnGrFjBBGN-MrpaAXC" name="Page-1">
    <mxGraphModel dx="1847" dy="548" grid="1" gridSize="10" guides="1" tooltips="1" connect="1" arrows="1" fold="1" page="1" pageScale="1" pageWidth="850" pageHeight="1100" math="0" shadow="0">
      <root>
        <mxCell id="0" />
        <mxCell id="1" parent="0" />
        <mxCell id="H3YFyVEjYAD6tzunSFBw-1" style="edgeStyle=orthogonalEdgeStyle;rounded=0;orthogonalLoop=1;jettySize=auto;html=1;endArrow=none;endFill=0;dashed=1;" edge="1" parent="1" source="H3YFyVEjYAD6tzunSFBw-12">
          <mxGeometry relative="1" as="geometry">
            <mxPoint x="-755" y="420" as="targetPoint" />
            <mxPoint x="-755.5" y="-80.5" as="sourcePoint" />
            <Array as="points" />
          </mxGeometry>
        </mxCell>
        <mxCell id="H3YFyVEjYAD6tzunSFBw-2" value="" style="shape=umlActor;verticalLabelPosition=bottom;verticalAlign=top;html=1;outlineConnect=0;" vertex="1" parent="1">
          <mxGeometry x="-765" y="110" width="20" height="40" as="geometry" />
        </mxCell>
        <mxCell id="H3YFyVEjYAD6tzunSFBw-3" style="edgeStyle=orthogonalEdgeStyle;rounded=0;orthogonalLoop=1;jettySize=auto;html=1;endArrow=none;endFill=0;dashed=1;startArrow=none;" edge="1" parent="1" source="H3YFyVEjYAD6tzunSFBw-20">
          <mxGeometry relative="1" as="geometry">
            <mxPoint x="-605" y="420" as="targetPoint" />
            <Array as="points">
              <mxPoint x="-605" y="370" />
              <mxPoint x="-605" y="370" />
            </Array>
          </mxGeometry>
        </mxCell>
        <mxCell id="H3YFyVEjYAD6tzunSFBw-4" value=":Home Page" style="rounded=0;whiteSpace=wrap;html=1;" vertex="1" parent="1">
          <mxGeometry x="-655" y="110" width="100" height="40" as="geometry" />
        </mxCell>
        <mxCell id="H3YFyVEjYAD6tzunSFBw-5" style="edgeStyle=orthogonalEdgeStyle;rounded=0;orthogonalLoop=1;jettySize=auto;html=1;endArrow=none;endFill=0;dashed=1;" edge="1" parent="1" source="H3YFyVEjYAD6tzunSFBw-6">
          <mxGeometry relative="1" as="geometry">
            <mxPoint x="-455" y="420" as="targetPoint" />
          </mxGeometry>
        </mxCell>
        <mxCell id="H3YFyVEjYAD6tzunSFBw-6" value=": Notes Maker" style="rounded=0;whiteSpace=wrap;html=1;" vertex="1" parent="1">
          <mxGeometry x="-505" y="110" width="100" height="40" as="geometry" />
        </mxCell>
        <mxCell id="H3YFyVEjYAD6tzunSFBw-7" value="" style="endArrow=classic;html=1;" edge="1" parent="1">
          <mxGeometry width="50" height="50" relative="1" as="geometry">
            <mxPoint x="-755" y="200" as="sourcePoint" />
            <mxPoint x="-612" y="200" as="targetPoint" />
          </mxGeometry>
        </mxCell>
        <mxCell id="H3YFyVEjYAD6tzunSFBw-8" value="clicks Notes" style="text;html=1;align=center;verticalAlign=middle;resizable=0;points=[];autosize=1;strokeColor=none;" vertex="1" parent="1">
          <mxGeometry x="-720" y="180" width="80" height="20" as="geometry" />
        </mxCell>
        <mxCell id="H3YFyVEjYAD6tzunSFBw-9" value="" style="html=1;points=[];perimeter=orthogonalPerimeter;fillColor=#ffffff;" vertex="1" parent="1">
          <mxGeometry x="-760" y="180" width="10" height="160" as="geometry" />
        </mxCell>
        <mxCell id="H3YFyVEjYAD6tzunSFBw-10" value="" style="html=1;points=[];perimeter=orthogonalPerimeter;fillColor=#ffffff;" vertex="1" parent="1">
          <mxGeometry x="-610" y="190" width="10" height="70" as="geometry" />
        </mxCell>
        <mxCell id="H3YFyVEjYAD6tzunSFBw-11" value="" style="html=1;points=[];perimeter=orthogonalPerimeter;fillColor=#ffffff;" vertex="1" parent="1">
          <mxGeometry x="-460" y="200" width="10" height="120" as="geometry" />
        </mxCell>
        <mxCell id="H3YFyVEjYAD6tzunSFBw-12" value="User" style="text;html=1;align=center;verticalAlign=middle;resizable=0;points=[];autosize=1;strokeColor=none;" vertex="1" parent="1">
          <mxGeometry x="-775" y="150" width="40" height="20" as="geometry" />
        </mxCell>
        <mxCell id="H3YFyVEjYAD6tzunSFBw-13" style="edgeStyle=orthogonalEdgeStyle;rounded=0;orthogonalLoop=1;jettySize=auto;html=1;endArrow=none;endFill=0;dashed=1;" edge="1" parent="1" source="H3YFyVEjYAD6tzunSFBw-14">
          <mxGeometry relative="1" as="geometry">
            <mxPoint x="-305" y="420" as="targetPoint" />
            <Array as="points">
              <mxPoint x="-305" y="420" />
              <mxPoint x="-305" y="420" />
            </Array>
          </mxGeometry>
        </mxCell>
        <mxCell id="H3YFyVEjYAD6tzunSFBw-14" value=": Database" style="rounded=0;whiteSpace=wrap;html=1;" vertex="1" parent="1">
          <mxGeometry x="-355" y="110" width="100" height="40" as="geometry" />
        </mxCell>
        <mxCell id="H3YFyVEjYAD6tzunSFBw-15" value="" style="endArrow=classic;html=1;" edge="1" parent="1">
          <mxGeometry width="50" height="50" relative="1" as="geometry">
            <mxPoint x="-600" y="220" as="sourcePoint" />
            <mxPoint x="-459" y="220" as="targetPoint" />
          </mxGeometry>
        </mxCell>
        <mxCell id="H3YFyVEjYAD6tzunSFBw-16" value="" style="endArrow=none;html=1;entryX=-0.02;entryY=0.222;entryDx=0;entryDy=0;entryPerimeter=0;endFill=0;startArrow=classic;startFill=1;dashed=1;exitX=1.02;exitY=0.75;exitDx=0;exitDy=0;exitPerimeter=0;" edge="1" parent="1" source="H3YFyVEjYAD6tzunSFBw-9">
          <mxGeometry width="50" height="50" relative="1" as="geometry">
            <mxPoint x="-599.8" y="300.02" as="sourcePoint" />
            <mxPoint x="-460" y="300" as="targetPoint" />
          </mxGeometry>
        </mxCell>
        <mxCell id="H3YFyVEjYAD6tzunSFBw-17" value="" style="html=1;points=[];perimeter=orthogonalPerimeter;fillColor=#ffffff;" vertex="1" parent="1">
          <mxGeometry x="-310" y="210" width="10" height="70" as="geometry" />
        </mxCell>
        <mxCell id="H3YFyVEjYAD6tzunSFBw-18" value="" style="endArrow=classic;html=1;entryX=-0.02;entryY=0.222;entryDx=0;entryDy=0;entryPerimeter=0;" edge="1" parent="1">
          <mxGeometry width="50" height="50" relative="1" as="geometry">
            <mxPoint x="-450" y="230" as="sourcePoint" />
            <mxPoint x="-310.20000000000005" y="229.98000000000002" as="targetPoint" />
          </mxGeometry>
        </mxCell>
        <mxCell id="H3YFyVEjYAD6tzunSFBw-19" value="" style="endArrow=none;html=1;entryX=-0.02;entryY=0.222;entryDx=0;entryDy=0;entryPerimeter=0;startArrow=classic;startFill=1;endFill=0;dashed=1;" edge="1" parent="1">
          <mxGeometry width="50" height="50" relative="1" as="geometry">
            <mxPoint x="-450" y="270.02" as="sourcePoint" />
            <mxPoint x="-310.20000000000005" y="270" as="targetPoint" />
          </mxGeometry>
        </mxCell>
        <mxCell id="H3YFyVEjYAD6tzunSFBw-20" value="display Notes" style="text;html=1;align=center;verticalAlign=middle;resizable=0;points=[];autosize=1;" vertex="1" parent="1">
          <mxGeometry x="-645" y="280" width="90" height="20" as="geometry" />
        </mxCell>
        <mxCell id="H3YFyVEjYAD6tzunSFBw-21" value="" style="edgeStyle=orthogonalEdgeStyle;rounded=0;orthogonalLoop=1;jettySize=auto;html=1;endArrow=none;endFill=0;dashed=1;" edge="1" parent="1" source="H3YFyVEjYAD6tzunSFBw-4" target="H3YFyVEjYAD6tzunSFBw-20">
          <mxGeometry relative="1" as="geometry">
            <mxPoint x="-605" y="580" as="targetPoint" />
            <mxPoint x="-605" y="150" as="sourcePoint" />
            <Array as="points">
              <mxPoint x="-605" y="270" />
              <mxPoint x="-605" y="270" />
            </Array>
          </mxGeometry>
        </mxCell>
        <mxCell id="H3YFyVEjYAD6tzunSFBw-22" value="send request" style="text;html=1;align=center;verticalAlign=middle;resizable=0;points=[];autosize=1;strokeColor=none;" vertex="1" parent="1">
          <mxGeometry x="-580" y="200" width="90" height="20" as="geometry" />
        </mxCell>
        <mxCell id="H3YFyVEjYAD6tzunSFBw-23" value="search data" style="text;html=1;align=center;verticalAlign=middle;resizable=0;points=[];autosize=1;strokeColor=none;" vertex="1" parent="1">
          <mxGeometry x="-415" y="210" width="80" height="20" as="geometry" />
        </mxCell>
        <mxCell id="H3YFyVEjYAD6tzunSFBw-24" value="get data" style="text;html=1;align=center;verticalAlign=middle;resizable=0;points=[];autosize=1;strokeColor=none;" vertex="1" parent="1">
          <mxGeometry x="-405" y="250" width="60" height="20" as="geometry" />
        </mxCell>
        <mxCell id="H3YFyVEjYAD6tzunSFBw-25" value="ViewNotes" style="text;html=1;align=center;verticalAlign=middle;resizable=0;points=[];autosize=1;strokeColor=none;" vertex="1" parent="1">
          <mxGeometry x="-775" y="60" width="70" height="20" as="geometry" />
        </mxCell>
      </root>
    </mxGraphModel>
  </diagram>
  <diagram id="CNCgHRhRpDNYTsDohbdp" name="Page-2">
    <mxGraphModel dx="1847" dy="548" grid="1" gridSize="10" guides="1" tooltips="1" connect="1" arrows="1" fold="1" page="1" pageScale="1" pageWidth="850" pageHeight="1100" math="0" shadow="0">
      <root>
        <mxCell id="n1pJvr7nmGY974d6JfXJ-0" />
        <mxCell id="n1pJvr7nmGY974d6JfXJ-1" parent="n1pJvr7nmGY974d6JfXJ-0" />
        <mxCell id="n1pJvr7nmGY974d6JfXJ-2" style="edgeStyle=orthogonalEdgeStyle;rounded=0;orthogonalLoop=1;jettySize=auto;html=1;endArrow=none;endFill=0;dashed=1;" edge="1" parent="n1pJvr7nmGY974d6JfXJ-1" source="n1pJvr7nmGY974d6JfXJ-10">
          <mxGeometry relative="1" as="geometry">
            <mxPoint x="-700" y="490" as="targetPoint" />
            <mxPoint x="-700.5" y="-90.5" as="sourcePoint" />
            <Array as="points" />
          </mxGeometry>
        </mxCell>
        <mxCell id="n1pJvr7nmGY974d6JfXJ-3" value="" style="shape=umlActor;verticalLabelPosition=bottom;verticalAlign=top;html=1;outlineConnect=0;" vertex="1" parent="n1pJvr7nmGY974d6JfXJ-1">
          <mxGeometry x="-710" y="100" width="20" height="40" as="geometry" />
        </mxCell>
        <mxCell id="n1pJvr7nmGY974d6JfXJ-4" value=": NotesMaker" style="rounded=0;whiteSpace=wrap;html=1;" vertex="1" parent="n1pJvr7nmGY974d6JfXJ-1">
          <mxGeometry x="-600" y="100" width="100" height="40" as="geometry" />
        </mxCell>
        <mxCell id="n1pJvr7nmGY974d6JfXJ-5" style="edgeStyle=orthogonalEdgeStyle;rounded=0;orthogonalLoop=1;jettySize=auto;html=1;endArrow=none;endFill=0;dashed=1;" edge="1" parent="n1pJvr7nmGY974d6JfXJ-1" source="n1pJvr7nmGY974d6JfXJ-6">
          <mxGeometry relative="1" as="geometry">
            <mxPoint x="-400" y="490" as="targetPoint" />
          </mxGeometry>
        </mxCell>
        <mxCell id="n1pJvr7nmGY974d6JfXJ-6" value=": Database" style="rounded=0;whiteSpace=wrap;html=1;" vertex="1" parent="n1pJvr7nmGY974d6JfXJ-1">
          <mxGeometry x="-450" y="100" width="100" height="40" as="geometry" />
        </mxCell>
        <mxCell id="n1pJvr7nmGY974d6JfXJ-7" value="" style="endArrow=classic;html=1;" edge="1" parent="n1pJvr7nmGY974d6JfXJ-1">
          <mxGeometry width="50" height="50" relative="1" as="geometry">
            <mxPoint x="-700" y="190" as="sourcePoint" />
            <mxPoint x="-557" y="190" as="targetPoint" />
          </mxGeometry>
        </mxCell>
        <mxCell id="n1pJvr7nmGY974d6JfXJ-8" value="clicks Add Button" style="text;html=1;align=center;verticalAlign=middle;resizable=0;points=[];autosize=1;strokeColor=none;" vertex="1" parent="n1pJvr7nmGY974d6JfXJ-1">
          <mxGeometry x="-680" y="170" width="110" height="20" as="geometry" />
        </mxCell>
        <mxCell id="n1pJvr7nmGY974d6JfXJ-9" value="" style="html=1;points=[];perimeter=orthogonalPerimeter;fillColor=#ffffff;" vertex="1" parent="n1pJvr7nmGY974d6JfXJ-1">
          <mxGeometry x="-405" y="190" width="10" height="260" as="geometry" />
        </mxCell>
        <mxCell id="n1pJvr7nmGY974d6JfXJ-10" value="User" style="text;html=1;align=center;verticalAlign=middle;resizable=0;points=[];autosize=1;strokeColor=none;" vertex="1" parent="n1pJvr7nmGY974d6JfXJ-1">
          <mxGeometry x="-720" y="140" width="40" height="20" as="geometry" />
        </mxCell>
        <mxCell id="n1pJvr7nmGY974d6JfXJ-11" value="" style="endArrow=classic;html=1;" edge="1" parent="n1pJvr7nmGY974d6JfXJ-1">
          <mxGeometry width="50" height="50" relative="1" as="geometry">
            <mxPoint x="-695" y="280" as="sourcePoint" />
            <mxPoint x="-554" y="280" as="targetPoint" />
          </mxGeometry>
        </mxCell>
        <mxCell id="n1pJvr7nmGY974d6JfXJ-12" value="" style="endArrow=none;html=1;entryX=-0.02;entryY=0.222;entryDx=0;entryDy=0;entryPerimeter=0;startArrow=classic;startFill=1;endFill=0;dashed=1;" edge="1" parent="n1pJvr7nmGY974d6JfXJ-1">
          <mxGeometry width="50" height="50" relative="1" as="geometry">
            <mxPoint x="-695" y="230.01999999999998" as="sourcePoint" />
            <mxPoint x="-555.2" y="230" as="targetPoint" />
          </mxGeometry>
        </mxCell>
        <mxCell id="n1pJvr7nmGY974d6JfXJ-13" value="" style="edgeStyle=orthogonalEdgeStyle;rounded=0;orthogonalLoop=1;jettySize=auto;html=1;endArrow=none;endFill=0;dashed=1;" edge="1" parent="n1pJvr7nmGY974d6JfXJ-1" source="n1pJvr7nmGY974d6JfXJ-4">
          <mxGeometry relative="1" as="geometry">
            <mxPoint x="-550" y="490" as="targetPoint" />
            <mxPoint x="-550" y="140" as="sourcePoint" />
            <Array as="points">
              <mxPoint x="-550" y="230" />
              <mxPoint x="-550" y="230" />
            </Array>
          </mxGeometry>
        </mxCell>
        <mxCell id="n1pJvr7nmGY974d6JfXJ-14" value="display form" style="text;html=1;align=center;verticalAlign=middle;resizable=0;points=[];autosize=1;strokeColor=none;" vertex="1" parent="n1pJvr7nmGY974d6JfXJ-1">
          <mxGeometry x="-665" y="210" width="80" height="20" as="geometry" />
        </mxCell>
        <mxCell id="n1pJvr7nmGY974d6JfXJ-15" value="enter subject" style="text;html=1;align=center;verticalAlign=middle;resizable=0;points=[];autosize=1;strokeColor=none;" vertex="1" parent="n1pJvr7nmGY974d6JfXJ-1">
          <mxGeometry x="-670" y="250" width="80" height="20" as="geometry" />
        </mxCell>
        <mxCell id="n1pJvr7nmGY974d6JfXJ-16" value="" style="endArrow=classic;html=1;" edge="1" parent="n1pJvr7nmGY974d6JfXJ-1">
          <mxGeometry width="50" height="50" relative="1" as="geometry">
            <mxPoint x="-695" y="320" as="sourcePoint" />
            <mxPoint x="-554" y="320" as="targetPoint" />
          </mxGeometry>
        </mxCell>
        <mxCell id="n1pJvr7nmGY974d6JfXJ-17" value="" style="endArrow=classic;html=1;" edge="1" parent="n1pJvr7nmGY974d6JfXJ-1">
          <mxGeometry width="50" height="50" relative="1" as="geometry">
            <mxPoint x="-546" y="340" as="sourcePoint" />
            <mxPoint x="-405" y="340" as="targetPoint" />
          </mxGeometry>
        </mxCell>
        <mxCell id="n1pJvr7nmGY974d6JfXJ-18" value="" style="endArrow=classic;html=1;" edge="1" parent="n1pJvr7nmGY974d6JfXJ-1">
          <mxGeometry width="50" height="50" relative="1" as="geometry">
            <mxPoint x="-545" y="289.5" as="sourcePoint" />
            <mxPoint x="-404" y="289.5" as="targetPoint" />
          </mxGeometry>
        </mxCell>
        <mxCell id="n1pJvr7nmGY974d6JfXJ-19" value="enter notes" style="text;html=1;align=center;verticalAlign=middle;resizable=0;points=[];autosize=1;strokeColor=none;" vertex="1" parent="n1pJvr7nmGY974d6JfXJ-1">
          <mxGeometry x="-670" y="300" width="80" height="20" as="geometry" />
        </mxCell>
        <mxCell id="n1pJvr7nmGY974d6JfXJ-20" value="addToNote&lt;br&gt;(subject)" style="text;html=1;align=center;verticalAlign=middle;resizable=0;points=[];autosize=1;strokeColor=none;" vertex="1" parent="n1pJvr7nmGY974d6JfXJ-1">
          <mxGeometry x="-505" y="255" width="70" height="30" as="geometry" />
        </mxCell>
        <mxCell id="n1pJvr7nmGY974d6JfXJ-21" value="addToNote&lt;br&gt;(notes)&lt;span style=&quot;color: rgba(0 , 0 , 0 , 0) ; font-family: monospace ; font-size: 0px&quot;&gt;%3CmxGraphModel%3E%3Croot%3E%3CmxCell%20id%3D%220%22%2F%3E%3CmxCell%20id%3D%221%22%20parent%3D%220%22%2F%3E%3CmxCell%20id%3D%222%22%20value%3D%22%22%20style%3D%22endArrow%3Dnone%3Bhtml%3D1%3BentryX%3D-0.02%3BentryY%3D0.222%3BentryDx%3D0%3BentryDy%3D0%3BentryPerimeter%3D0%3BstartArrow%3Dclassic%3BstartFill%3D1%3BendFill%3D0%3Bdashed%3D1%3B%22%20edge%3D%221%22%20parent%3D%221%22%3E%3CmxGeometry%20width%3D%2250%22%20height%3D%2250%22%20relative%3D%221%22%20as%3D%22geometry%22%3E%3CmxPoint%20x%3D%22-340%22%20y%3D%22330.02%22%20as%3D%22sourcePoint%22%2F%3E%3CmxPoint%20x%3D%22-200.20000000000005%22%20y%3D%22330%22%20as%3D%22targetPoint%22%2F%3E%3C%2FmxGeometry%3E%3C%2FmxCell%3E%3C%2Froot%3E%3C%2FmxGraphModel%3E&lt;/span&gt;" style="text;html=1;align=center;verticalAlign=middle;resizable=0;points=[];autosize=1;strokeColor=none;" vertex="1" parent="n1pJvr7nmGY974d6JfXJ-1">
          <mxGeometry x="-505" y="300" width="70" height="40" as="geometry" />
        </mxCell>
        <mxCell id="n1pJvr7nmGY974d6JfXJ-22" value="" style="endArrow=classic;html=1;" edge="1" parent="n1pJvr7nmGY974d6JfXJ-1">
          <mxGeometry width="50" height="50" relative="1" as="geometry">
            <mxPoint x="-696" y="360" as="sourcePoint" />
            <mxPoint x="-555" y="360" as="targetPoint" />
          </mxGeometry>
        </mxCell>
        <mxCell id="n1pJvr7nmGY974d6JfXJ-23" value="clicks add button" style="text;html=1;align=center;verticalAlign=middle;resizable=0;points=[];autosize=1;strokeColor=none;" vertex="1" parent="n1pJvr7nmGY974d6JfXJ-1">
          <mxGeometry x="-685" y="332.5" width="110" height="20" as="geometry" />
        </mxCell>
        <mxCell id="n1pJvr7nmGY974d6JfXJ-24" value="addToNote()" style="text;html=1;align=center;verticalAlign=middle;resizable=0;points=[];autosize=1;strokeColor=none;" vertex="1" parent="n1pJvr7nmGY974d6JfXJ-1">
          <mxGeometry x="-520" y="352.5" width="80" height="20" as="geometry" />
        </mxCell>
        <mxCell id="n1pJvr7nmGY974d6JfXJ-25" value="" style="html=1;points=[];perimeter=orthogonalPerimeter;fillColor=#FFFFFF;" vertex="1" parent="n1pJvr7nmGY974d6JfXJ-1">
          <mxGeometry x="-555" y="395" width="10" height="30" as="geometry" />
        </mxCell>
        <mxCell id="n1pJvr7nmGY974d6JfXJ-26" value="" style="html=1;points=[];perimeter=orthogonalPerimeter;fillColor=#FFFFFF;" vertex="1" parent="n1pJvr7nmGY974d6JfXJ-1">
          <mxGeometry x="-705" y="390" width="10" height="30" as="geometry" />
        </mxCell>
        <mxCell id="n1pJvr7nmGY974d6JfXJ-27" value="" style="html=1;points=[];perimeter=orthogonalPerimeter;fillColor=#FFFFFF;" vertex="1" parent="n1pJvr7nmGY974d6JfXJ-1">
          <mxGeometry x="-705" y="310" width="10" height="30" as="geometry" />
        </mxCell>
        <mxCell id="n1pJvr7nmGY974d6JfXJ-28" value="" style="html=1;points=[];perimeter=orthogonalPerimeter;fillColor=#FFFFFF;" vertex="1" parent="n1pJvr7nmGY974d6JfXJ-1">
          <mxGeometry x="-555" y="315" width="10" height="55" as="geometry" />
        </mxCell>
        <mxCell id="n1pJvr7nmGY974d6JfXJ-29" value="" style="endArrow=classic;html=1;" edge="1" parent="n1pJvr7nmGY974d6JfXJ-1">
          <mxGeometry width="50" height="50" relative="1" as="geometry">
            <mxPoint x="-546" y="380" as="sourcePoint" />
            <mxPoint x="-405" y="380" as="targetPoint" />
          </mxGeometry>
        </mxCell>
        <mxCell id="n1pJvr7nmGY974d6JfXJ-30" value="" style="html=1;points=[];perimeter=orthogonalPerimeter;fillColor=#FFFFFF;" vertex="1" parent="n1pJvr7nmGY974d6JfXJ-1">
          <mxGeometry x="-555" y="170" width="10" height="280" as="geometry" />
        </mxCell>
        <mxCell id="n1pJvr7nmGY974d6JfXJ-31" value="" style="html=1;points=[];perimeter=orthogonalPerimeter;fillColor=#ffffff;" vertex="1" parent="n1pJvr7nmGY974d6JfXJ-1">
          <mxGeometry x="-705" y="170" width="10" height="280" as="geometry" />
        </mxCell>
        <mxCell id="n1pJvr7nmGY974d6JfXJ-32" value="" style="endArrow=none;html=1;entryX=-0.02;entryY=0.222;entryDx=0;entryDy=0;entryPerimeter=0;startArrow=classic;startFill=1;endFill=0;dashed=1;" edge="1" parent="n1pJvr7nmGY974d6JfXJ-1">
          <mxGeometry width="50" height="50" relative="1" as="geometry">
            <mxPoint x="-695" y="425.02" as="sourcePoint" />
            <mxPoint x="-555.2" y="425" as="targetPoint" />
          </mxGeometry>
        </mxCell>
        <mxCell id="n1pJvr7nmGY974d6JfXJ-33" value="" style="endArrow=none;html=1;entryX=-0.02;entryY=0.222;entryDx=0;entryDy=0;entryPerimeter=0;startArrow=classic;startFill=1;endFill=0;dashed=1;" edge="1" parent="n1pJvr7nmGY974d6JfXJ-1">
          <mxGeometry width="50" height="50" relative="1" as="geometry">
            <mxPoint x="-545" y="409.52" as="sourcePoint" />
            <mxPoint x="-405.20000000000005" y="409.5" as="targetPoint" />
          </mxGeometry>
        </mxCell>
        <mxCell id="n1pJvr7nmGY974d6JfXJ-34" value="get data" style="text;html=1;align=center;verticalAlign=middle;resizable=0;points=[];autosize=1;strokeColor=none;" vertex="1" parent="n1pJvr7nmGY974d6JfXJ-1">
          <mxGeometry x="-500" y="390" width="60" height="20" as="geometry" />
        </mxCell>
        <mxCell id="n1pJvr7nmGY974d6JfXJ-35" value="display Notes" style="text;html=1;align=center;verticalAlign=middle;resizable=0;points=[];autosize=1;strokeColor=none;" vertex="1" parent="n1pJvr7nmGY974d6JfXJ-1">
          <mxGeometry x="-665" y="400" width="90" height="20" as="geometry" />
        </mxCell>
      </root>
    </mxGraphModel>
  </diagram>
  <diagram id="7nS_4OB4FNdWpYUYVp3t" name="Page-3">
    <mxGraphModel dx="1847" dy="548" grid="1" gridSize="10" guides="1" tooltips="1" connect="1" arrows="1" fold="1" page="1" pageScale="1" pageWidth="850" pageHeight="1100" math="0" shadow="0">
      <root>
        <mxCell id="KH9z4mtf7umEfDls45nL-0" />
        <mxCell id="KH9z4mtf7umEfDls45nL-1" parent="KH9z4mtf7umEfDls45nL-0" />
        <mxCell id="0Mn31fBiJMpSM6HTWpbX-0" style="edgeStyle=orthogonalEdgeStyle;rounded=0;orthogonalLoop=1;jettySize=auto;html=1;endArrow=none;endFill=0;dashed=1;" edge="1" parent="KH9z4mtf7umEfDls45nL-1" source="0Mn31fBiJMpSM6HTWpbX-8">
          <mxGeometry relative="1" as="geometry">
            <mxPoint x="-700" y="490" as="targetPoint" />
            <mxPoint x="-700.5" y="-90.5" as="sourcePoint" />
            <Array as="points" />
          </mxGeometry>
        </mxCell>
        <mxCell id="0Mn31fBiJMpSM6HTWpbX-1" value="" style="shape=umlActor;verticalLabelPosition=bottom;verticalAlign=top;html=1;outlineConnect=0;" vertex="1" parent="KH9z4mtf7umEfDls45nL-1">
          <mxGeometry x="-710" y="100" width="20" height="40" as="geometry" />
        </mxCell>
        <mxCell id="0Mn31fBiJMpSM6HTWpbX-2" value=": NotesMaker" style="rounded=0;whiteSpace=wrap;html=1;" vertex="1" parent="KH9z4mtf7umEfDls45nL-1">
          <mxGeometry x="-600" y="100" width="100" height="40" as="geometry" />
        </mxCell>
        <mxCell id="0Mn31fBiJMpSM6HTWpbX-3" style="edgeStyle=orthogonalEdgeStyle;rounded=0;orthogonalLoop=1;jettySize=auto;html=1;endArrow=none;endFill=0;dashed=1;" edge="1" parent="KH9z4mtf7umEfDls45nL-1" source="0Mn31fBiJMpSM6HTWpbX-4">
          <mxGeometry relative="1" as="geometry">
            <mxPoint x="-400" y="490" as="targetPoint" />
          </mxGeometry>
        </mxCell>
        <mxCell id="0Mn31fBiJMpSM6HTWpbX-4" value=": Database" style="rounded=0;whiteSpace=wrap;html=1;" vertex="1" parent="KH9z4mtf7umEfDls45nL-1">
          <mxGeometry x="-450" y="100" width="100" height="40" as="geometry" />
        </mxCell>
        <mxCell id="0Mn31fBiJMpSM6HTWpbX-5" value="" style="endArrow=classic;html=1;" edge="1" parent="KH9z4mtf7umEfDls45nL-1">
          <mxGeometry width="50" height="50" relative="1" as="geometry">
            <mxPoint x="-700" y="190" as="sourcePoint" />
            <mxPoint x="-557" y="190" as="targetPoint" />
          </mxGeometry>
        </mxCell>
        <mxCell id="0Mn31fBiJMpSM6HTWpbX-6" value="clicks Note&amp;nbsp;" style="text;html=1;align=center;verticalAlign=middle;resizable=0;points=[];autosize=1;strokeColor=none;" vertex="1" parent="KH9z4mtf7umEfDls45nL-1">
          <mxGeometry x="-665" y="170" width="80" height="20" as="geometry" />
        </mxCell>
        <mxCell id="0Mn31fBiJMpSM6HTWpbX-7" value="" style="html=1;points=[];perimeter=orthogonalPerimeter;fillColor=#ffffff;" vertex="1" parent="KH9z4mtf7umEfDls45nL-1">
          <mxGeometry x="-405" y="190" width="10" height="260" as="geometry" />
        </mxCell>
        <mxCell id="0Mn31fBiJMpSM6HTWpbX-8" value="User" style="text;html=1;align=center;verticalAlign=middle;resizable=0;points=[];autosize=1;strokeColor=none;" vertex="1" parent="KH9z4mtf7umEfDls45nL-1">
          <mxGeometry x="-720" y="140" width="40" height="20" as="geometry" />
        </mxCell>
        <mxCell id="0Mn31fBiJMpSM6HTWpbX-9" value="" style="endArrow=classic;html=1;" edge="1" parent="KH9z4mtf7umEfDls45nL-1">
          <mxGeometry width="50" height="50" relative="1" as="geometry">
            <mxPoint x="-695" y="280" as="sourcePoint" />
            <mxPoint x="-554" y="280" as="targetPoint" />
          </mxGeometry>
        </mxCell>
        <mxCell id="0Mn31fBiJMpSM6HTWpbX-10" value="" style="endArrow=none;html=1;entryX=-0.02;entryY=0.222;entryDx=0;entryDy=0;entryPerimeter=0;startArrow=classic;startFill=1;endFill=0;dashed=1;" edge="1" parent="KH9z4mtf7umEfDls45nL-1">
          <mxGeometry width="50" height="50" relative="1" as="geometry">
            <mxPoint x="-695" y="249.01999999999998" as="sourcePoint" />
            <mxPoint x="-555.2" y="249" as="targetPoint" />
          </mxGeometry>
        </mxCell>
        <mxCell id="0Mn31fBiJMpSM6HTWpbX-11" value="" style="edgeStyle=orthogonalEdgeStyle;rounded=0;orthogonalLoop=1;jettySize=auto;html=1;endArrow=none;endFill=0;dashed=1;" edge="1" parent="KH9z4mtf7umEfDls45nL-1" source="0Mn31fBiJMpSM6HTWpbX-2">
          <mxGeometry relative="1" as="geometry">
            <mxPoint x="-550" y="490" as="targetPoint" />
            <mxPoint x="-550" y="140" as="sourcePoint" />
            <Array as="points">
              <mxPoint x="-550" y="230" />
              <mxPoint x="-550" y="230" />
            </Array>
          </mxGeometry>
        </mxCell>
        <mxCell id="0Mn31fBiJMpSM6HTWpbX-12" value="display form" style="text;html=1;align=center;verticalAlign=middle;resizable=0;points=[];autosize=1;strokeColor=none;" vertex="1" parent="KH9z4mtf7umEfDls45nL-1">
          <mxGeometry x="-665" y="230" width="80" height="20" as="geometry" />
        </mxCell>
        <mxCell id="0Mn31fBiJMpSM6HTWpbX-13" value="enter subject" style="text;html=1;align=center;verticalAlign=middle;resizable=0;points=[];autosize=1;strokeColor=none;" vertex="1" parent="KH9z4mtf7umEfDls45nL-1">
          <mxGeometry x="-670" y="250" width="80" height="20" as="geometry" />
        </mxCell>
        <mxCell id="0Mn31fBiJMpSM6HTWpbX-14" value="" style="endArrow=classic;html=1;" edge="1" parent="KH9z4mtf7umEfDls45nL-1">
          <mxGeometry width="50" height="50" relative="1" as="geometry">
            <mxPoint x="-695" y="320" as="sourcePoint" />
            <mxPoint x="-554" y="320" as="targetPoint" />
          </mxGeometry>
        </mxCell>
        <mxCell id="0Mn31fBiJMpSM6HTWpbX-15" value="" style="endArrow=classic;html=1;" edge="1" parent="KH9z4mtf7umEfDls45nL-1">
          <mxGeometry width="50" height="50" relative="1" as="geometry">
            <mxPoint x="-546" y="340" as="sourcePoint" />
            <mxPoint x="-405" y="340" as="targetPoint" />
          </mxGeometry>
        </mxCell>
        <mxCell id="0Mn31fBiJMpSM6HTWpbX-16" value="" style="endArrow=classic;html=1;" edge="1" parent="KH9z4mtf7umEfDls45nL-1">
          <mxGeometry width="50" height="50" relative="1" as="geometry">
            <mxPoint x="-545" y="289.5" as="sourcePoint" />
            <mxPoint x="-404" y="289.5" as="targetPoint" />
          </mxGeometry>
        </mxCell>
        <mxCell id="0Mn31fBiJMpSM6HTWpbX-17" value="enter notes" style="text;html=1;align=center;verticalAlign=middle;resizable=0;points=[];autosize=1;strokeColor=none;" vertex="1" parent="KH9z4mtf7umEfDls45nL-1">
          <mxGeometry x="-670" y="300" width="80" height="20" as="geometry" />
        </mxCell>
        <mxCell id="0Mn31fBiJMpSM6HTWpbX-18" value="addToNote&lt;br&gt;(subject)" style="text;html=1;align=center;verticalAlign=middle;resizable=0;points=[];autosize=1;strokeColor=none;" vertex="1" parent="KH9z4mtf7umEfDls45nL-1">
          <mxGeometry x="-505" y="255" width="70" height="30" as="geometry" />
        </mxCell>
        <mxCell id="0Mn31fBiJMpSM6HTWpbX-19" value="addToNote&lt;br&gt;(notes)&lt;span style=&quot;color: rgba(0 , 0 , 0 , 0) ; font-family: monospace ; font-size: 0px&quot;&gt;%3CmxGraphModel%3E%3Croot%3E%3CmxCell%20id%3D%220%22%2F%3E%3CmxCell%20id%3D%221%22%20parent%3D%220%22%2F%3E%3CmxCell%20id%3D%222%22%20value%3D%22%22%20style%3D%22endArrow%3Dnone%3Bhtml%3D1%3BentryX%3D-0.02%3BentryY%3D0.222%3BentryDx%3D0%3BentryDy%3D0%3BentryPerimeter%3D0%3BstartArrow%3Dclassic%3BstartFill%3D1%3BendFill%3D0%3Bdashed%3D1%3B%22%20edge%3D%221%22%20parent%3D%221%22%3E%3CmxGeometry%20width%3D%2250%22%20height%3D%2250%22%20relative%3D%221%22%20as%3D%22geometry%22%3E%3CmxPoint%20x%3D%22-340%22%20y%3D%22330.02%22%20as%3D%22sourcePoint%22%2F%3E%3CmxPoint%20x%3D%22-200.20000000000005%22%20y%3D%22330%22%20as%3D%22targetPoint%22%2F%3E%3C%2FmxGeometry%3E%3C%2FmxCell%3E%3C%2Froot%3E%3C%2FmxGraphModel%3E&lt;/span&gt;" style="text;html=1;align=center;verticalAlign=middle;resizable=0;points=[];autosize=1;strokeColor=none;" vertex="1" parent="KH9z4mtf7umEfDls45nL-1">
          <mxGeometry x="-505" y="300" width="70" height="40" as="geometry" />
        </mxCell>
        <mxCell id="0Mn31fBiJMpSM6HTWpbX-20" value="" style="endArrow=classic;html=1;" edge="1" parent="KH9z4mtf7umEfDls45nL-1">
          <mxGeometry width="50" height="50" relative="1" as="geometry">
            <mxPoint x="-696" y="360" as="sourcePoint" />
            <mxPoint x="-555" y="360" as="targetPoint" />
          </mxGeometry>
        </mxCell>
        <mxCell id="0Mn31fBiJMpSM6HTWpbX-21" value="clicks add button" style="text;html=1;align=center;verticalAlign=middle;resizable=0;points=[];autosize=1;strokeColor=none;" vertex="1" parent="KH9z4mtf7umEfDls45nL-1">
          <mxGeometry x="-685" y="332.5" width="110" height="20" as="geometry" />
        </mxCell>
        <mxCell id="0Mn31fBiJMpSM6HTWpbX-22" value="addToNote()" style="text;html=1;align=center;verticalAlign=middle;resizable=0;points=[];autosize=1;strokeColor=none;" vertex="1" parent="KH9z4mtf7umEfDls45nL-1">
          <mxGeometry x="-520" y="352.5" width="80" height="20" as="geometry" />
        </mxCell>
        <mxCell id="0Mn31fBiJMpSM6HTWpbX-23" value="" style="html=1;points=[];perimeter=orthogonalPerimeter;fillColor=#FFFFFF;" vertex="1" parent="KH9z4mtf7umEfDls45nL-1">
          <mxGeometry x="-555" y="395" width="10" height="30" as="geometry" />
        </mxCell>
        <mxCell id="0Mn31fBiJMpSM6HTWpbX-24" value="" style="html=1;points=[];perimeter=orthogonalPerimeter;fillColor=#FFFFFF;" vertex="1" parent="KH9z4mtf7umEfDls45nL-1">
          <mxGeometry x="-705" y="390" width="10" height="30" as="geometry" />
        </mxCell>
        <mxCell id="0Mn31fBiJMpSM6HTWpbX-25" value="" style="html=1;points=[];perimeter=orthogonalPerimeter;fillColor=#FFFFFF;" vertex="1" parent="KH9z4mtf7umEfDls45nL-1">
          <mxGeometry x="-705" y="310" width="10" height="30" as="geometry" />
        </mxCell>
        <mxCell id="0Mn31fBiJMpSM6HTWpbX-26" value="" style="html=1;points=[];perimeter=orthogonalPerimeter;fillColor=#FFFFFF;" vertex="1" parent="KH9z4mtf7umEfDls45nL-1">
          <mxGeometry x="-555" y="315" width="10" height="55" as="geometry" />
        </mxCell>
        <mxCell id="0Mn31fBiJMpSM6HTWpbX-27" value="" style="endArrow=classic;html=1;" edge="1" parent="KH9z4mtf7umEfDls45nL-1">
          <mxGeometry width="50" height="50" relative="1" as="geometry">
            <mxPoint x="-546" y="380" as="sourcePoint" />
            <mxPoint x="-405" y="380" as="targetPoint" />
          </mxGeometry>
        </mxCell>
        <mxCell id="0Mn31fBiJMpSM6HTWpbX-28" value="" style="html=1;points=[];perimeter=orthogonalPerimeter;fillColor=#FFFFFF;" vertex="1" parent="KH9z4mtf7umEfDls45nL-1">
          <mxGeometry x="-555" y="170" width="10" height="280" as="geometry" />
        </mxCell>
        <mxCell id="0Mn31fBiJMpSM6HTWpbX-29" value="" style="html=1;points=[];perimeter=orthogonalPerimeter;fillColor=#ffffff;" vertex="1" parent="KH9z4mtf7umEfDls45nL-1">
          <mxGeometry x="-705" y="170" width="10" height="280" as="geometry" />
        </mxCell>
        <mxCell id="0Mn31fBiJMpSM6HTWpbX-30" value="" style="endArrow=none;html=1;entryX=-0.02;entryY=0.222;entryDx=0;entryDy=0;entryPerimeter=0;startArrow=classic;startFill=1;endFill=0;dashed=1;" edge="1" parent="KH9z4mtf7umEfDls45nL-1">
          <mxGeometry width="50" height="50" relative="1" as="geometry">
            <mxPoint x="-695" y="425.02" as="sourcePoint" />
            <mxPoint x="-555.2" y="425" as="targetPoint" />
          </mxGeometry>
        </mxCell>
        <mxCell id="0Mn31fBiJMpSM6HTWpbX-31" value="" style="endArrow=none;html=1;entryX=-0.02;entryY=0.222;entryDx=0;entryDy=0;entryPerimeter=0;startArrow=classic;startFill=1;endFill=0;dashed=1;" edge="1" parent="KH9z4mtf7umEfDls45nL-1">
          <mxGeometry width="50" height="50" relative="1" as="geometry">
            <mxPoint x="-545" y="409.52" as="sourcePoint" />
            <mxPoint x="-405.20000000000005" y="409.5" as="targetPoint" />
          </mxGeometry>
        </mxCell>
        <mxCell id="0Mn31fBiJMpSM6HTWpbX-32" value="get data" style="text;html=1;align=center;verticalAlign=middle;resizable=0;points=[];autosize=1;strokeColor=none;" vertex="1" parent="KH9z4mtf7umEfDls45nL-1">
          <mxGeometry x="-500" y="390" width="60" height="20" as="geometry" />
        </mxCell>
        <mxCell id="0Mn31fBiJMpSM6HTWpbX-33" value="display Notes" style="text;html=1;align=center;verticalAlign=middle;resizable=0;points=[];autosize=1;strokeColor=none;" vertex="1" parent="KH9z4mtf7umEfDls45nL-1">
          <mxGeometry x="-665" y="400" width="90" height="20" as="geometry" />
        </mxCell>
        <mxCell id="0Mn31fBiJMpSM6HTWpbX-34" value="" style="endArrow=classic;html=1;" edge="1" parent="KH9z4mtf7umEfDls45nL-1">
          <mxGeometry width="50" height="50" relative="1" as="geometry">
            <mxPoint x="-695" y="220" as="sourcePoint" />
            <mxPoint x="-554" y="220" as="targetPoint" />
          </mxGeometry>
        </mxCell>
        <mxCell id="0Mn31fBiJMpSM6HTWpbX-35" value="clicks Update&amp;nbsp;" style="text;html=1;align=center;verticalAlign=middle;resizable=0;points=[];autosize=1;strokeColor=none;" vertex="1" parent="KH9z4mtf7umEfDls45nL-1">
          <mxGeometry x="-670" y="200" width="90" height="20" as="geometry" />
        </mxCell>
        <mxCell id="0Mn31fBiJMpSM6HTWpbX-36" value="UpdateNotes" style="text;html=1;align=center;verticalAlign=middle;resizable=0;points=[];autosize=1;strokeColor=none;" vertex="1" parent="KH9z4mtf7umEfDls45nL-1">
          <mxGeometry x="-775" y="40" width="90" height="20" as="geometry" />
        </mxCell>
      </root>
    </mxGraphModel>
  </diagram>
  <diagram id="eBy5ioWiVuaAK_4P7ouc" name="Page-4">
    <mxGraphModel dx="997" dy="548" grid="1" gridSize="10" guides="1" tooltips="1" connect="1" arrows="1" fold="1" page="1" pageScale="1" pageWidth="850" pageHeight="1100" math="0" shadow="0">
      <root>
        <mxCell id="sn-mlanBTpRnhzEVliaw-0" />
        <mxCell id="sn-mlanBTpRnhzEVliaw-1" parent="sn-mlanBTpRnhzEVliaw-0" />
      </root>
    </mxGraphModel>
  </diagram>
</mxfile>
